<svg width="436" height="327" viewBox="0 0 436 327" fill="none" xmlns="http://www.w3.org/2000/svg">
<rect width="436" height="327" fill="black"/>
<rect width="436" height="327" fill="url(#paint0_radial_1009_5973)"/>
<rect width="436" height="327" fill="url(#paint1_linear_1009_5973)"/>
<mask id="mask0_1009_5973" style="mask-type:alpha" maskUnits="userSpaceOnUse" x="0" y="0" width="436" height="327">
<rect width="436" height="327" fill="black"/>
</mask>
<g mask="url(#mask0_1009_5973)">
<circle cx="218" cy="339" r="301" fill="url(#paint2_linear_1009_5973)" fill-opacity="0.08"/>
<circle cx="218" cy="339" r="242.5" fill="white" fill-opacity="0.02" stroke="url(#paint3_linear_1009_5973)"/>
<circle cx="218" cy="339" r="201.5" fill="url(#paint4_linear_1009_5973)" stroke="url(#paint5_linear_1009_5973)"/>
<circle cx="218" cy="339" r="161.5" fill="url(#paint6_linear_1009_5973)" fill-opacity="0.04" stroke="url(#paint7_linear_1009_5973)"/>
<circle cx="218" cy="339" r="121.5" stroke="url(#paint8_linear_1009_5973)"/>
<circle cx="153" cy="191" r="6" fill="#46405C"/>
<circle cx="86" cy="245" r="6" fill="#46405C"/>
<circle cx="285" cy="191" r="6" fill="#46405C"/>
<circle cx="350" cy="245" r="6" fill="#46405C"/>
<circle cx="218" cy="137" r="6" fill="#D4CAFB"/>
<g filter="url(#filter0_d_1009_5973)">
<path d="M199.374 28.5118C204.61 25.6373 210.61 23 217.993 23H218C225.376 23 231.376 25.6303 236.612 28.5118C238.192 29.3839 239.668 30.2351 241.07 31.0583C244.508 33.0677 247.558 34.8468 250.897 35.977C252.559 36.5134 254.206 37.0997 255.836 37.7352C257.002 38.2166 258.378 38.8794 259.36 40.0306C260.14 40.9833 260.699 42.1157 260.993 43.3377C261.256 44.3493 261.494 45.7168 261.717 47.0354C267.158 78.9618 255.283 109.214 226.258 120.991C223.407 122.149 221.299 123 218.006 123C214.707 123 212.606 122.149 209.754 120.984C180.729 109.214 168.842 78.9618 174.282 47.0285C174.499 45.7168 174.736 44.3563 175.006 43.3447C175.3 42.1227 175.86 40.9904 176.639 40.0376C177.614 38.8794 178.997 38.2236 180.156 37.7422C181.388 37.2329 183.127 36.6399 185.096 35.977C188.435 34.8468 191.484 33.0677 194.916 31.0583L194.934 31.0474C196.338 30.2275 197.801 29.3731 199.374 28.5118Z" fill="url(#paint9_linear_1009_5973)"/>
</g>
<g filter="url(#filter1_d_1009_5973)">
<path d="M231.773 71.0628L220.563 94.1485C219.803 95.7048 218.01 94.9857 218.01 93.1397V77.8136H205.397C204.29 77.8136 203.626 76.1822 204.227 74.9372L215.448 51.8515C216.207 50.2952 218 51.0143 218 52.8603V68.1864H230.613C231.71 68.1864 232.374 69.8285 231.773 71.0628Z" fill="white"/>
</g>
<circle cx="218" cy="218" r="23.5" fill="url(#paint10_linear_1009_5973)" stroke="#20182F"/>
<path d="M217.804 208C215.22 208 213.122 210.014 213.122 212.5C213.122 214.986 215.219 217 217.804 217C220.39 217 222.487 214.986 222.487 212.5C222.487 210.014 220.392 208 217.804 208ZM217.804 208C215.22 208 213.122 210.014 213.122 212.5C213.122 214.986 215.219 217 217.804 217C220.39 217 222.487 214.986 222.487 212.5C222.487 210.014 220.392 208 217.804 208ZM216.05 218.5C212.709 218.5 210 221.103 210 224.312V224.686C210 225.999 212.709 226 216.05 226H219.952C223.292 226 226 225.951 226 224.686V224.312C226 221.103 223.292 218.5 219.952 218.5H216.05Z" fill="white"/>
</g>
<defs>
<filter id="filter0_d_1009_5973" x="149" y="7" width="138" height="148" filterUnits="userSpaceOnUse" color-interpolation-filters="sRGB">
<feFlood flood-opacity="0" result="BackgroundImageFix"/>
<feColorMatrix in="SourceAlpha" type="matrix" values="0 0 0 0 0 0 0 0 0 0 0 0 0 0 0 0 0 0 127 0" result="hardAlpha"/>
<feOffset dy="8"/>
<feGaussianBlur stdDeviation="12"/>
<feComposite in2="hardAlpha" operator="out"/>
<feColorMatrix type="matrix" values="0 0 0 0 0.309804 0 0 0 0 0.101961 0 0 0 0 0.839216 0 0 0 0.4 0"/>
<feBlend mode="normal" in2="BackgroundImageFix" result="effect1_dropShadow_1009_5973"/>
<feBlend mode="normal" in="SourceGraphic" in2="effect1_dropShadow_1009_5973" result="shape"/>
</filter>
<filter id="filter1_d_1009_5973" x="192" y="47" width="52" height="68" filterUnits="userSpaceOnUse" color-interpolation-filters="sRGB">
<feFlood flood-opacity="0" result="BackgroundImageFix"/>
<feColorMatrix in="SourceAlpha" type="matrix" values="0 0 0 0 0 0 0 0 0 0 0 0 0 0 0 0 0 0 127 0" result="hardAlpha"/>
<feOffset dy="8"/>
<feGaussianBlur stdDeviation="6"/>
<feComposite in2="hardAlpha" operator="out"/>
<feColorMatrix type="matrix" values="0 0 0 0 0 0 0 0 0 0 0 0 0 0 0 0 0 0 0.3 0"/>
<feBlend mode="normal" in2="BackgroundImageFix" result="effect1_dropShadow_1009_5973"/>
<feBlend mode="normal" in="SourceGraphic" in2="effect1_dropShadow_1009_5973" result="shape"/>
</filter>
<radialGradient id="paint0_radial_1009_5973" cx="0" cy="0" r="1" gradientUnits="userSpaceOnUse" gradientTransform="translate(218 163.5) rotate(90) scale(163.5 218)">
<stop stop-color="#0F0912" stop-opacity="0.15"/>
<stop offset="1" stop-color="#0C0912"/>
</radialGradient>
<linearGradient id="paint1_linear_1009_5973" x1="218" y1="0" x2="218" y2="327" gradientUnits="userSpaceOnUse">
<stop stop-color="#4F1AD6" stop-opacity="0.15"/>
<stop offset="1" stop-opacity="0.5"/>
</linearGradient>
<linearGradient id="paint2_linear_1009_5973" x1="218" y1="38" x2="218" y2="640" gradientUnits="userSpaceOnUse">
<stop stop-color="white"/>
<stop offset="0.4" stop-color="white" stop-opacity="0"/>
</linearGradient>
<linearGradient id="paint3_linear_1009_5973" x1="-25" y1="339" x2="461" y2="339" gradientUnits="userSpaceOnUse">
<stop stop-color="white" stop-opacity="0.2"/>
<stop offset="0.238045" stop-color="white" stop-opacity="0"/>
<stop offset="0.764094" stop-color="white" stop-opacity="0"/>
<stop offset="1" stop-color="white" stop-opacity="0.2"/>
</linearGradient>
<linearGradient id="paint4_linear_1009_5973" x1="218" y1="137" x2="218" y2="541" gradientUnits="userSpaceOnUse">
<stop stop-color="#170B32"/>
<stop offset="0.3" stop-color="#170B32" stop-opacity="0"/>
</linearGradient>
<linearGradient id="paint5_linear_1009_5973" x1="218" y1="137" x2="218" y2="541" gradientUnits="userSpaceOnUse">
<stop stop-color="white" stop-opacity="0.2"/>
<stop offset="0.1" stop-color="white" stop-opacity="0"/>
</linearGradient>
<linearGradient id="paint6_linear_1009_5973" x1="218" y1="177" x2="218" y2="501" gradientUnits="userSpaceOnUse">
<stop stop-color="white"/>
<stop offset="0.4" stop-color="white" stop-opacity="0"/>
</linearGradient>
<linearGradient id="paint7_linear_1009_5973" x1="218" y1="177" x2="218" y2="501" gradientUnits="userSpaceOnUse">
<stop stop-color="white" stop-opacity="0.2"/>
<stop offset="0.1" stop-color="white" stop-opacity="0"/>
</linearGradient>
<linearGradient id="paint8_linear_1009_5973" x1="218" y1="217" x2="218" y2="461" gradientUnits="userSpaceOnUse">
<stop stop-color="white" stop-opacity="0.1"/>
<stop offset="0.4" stop-color="white" stop-opacity="0"/>
</linearGradient>
<linearGradient id="paint9_linear_1009_5973" x1="218" y1="23" x2="218" y2="123" gradientUnits="userSpaceOnUse">
<stop stop-color="#A19DF7"/>
<stop offset="1" stop-color="#423EA7"/>
</linearGradient>
<linearGradient id="paint10_linear_1009_5973" x1="218" y1="194" x2="218" y2="242" gradientUnits="userSpaceOnUse">
<stop stop-color="#1F1339"/>
<stop offset="1" stop-color="#130C1A"/>
</linearGradient>
</defs>
</svg>
