<svg width="436" height="327" viewBox="0 0 436 327" fill="none" xmlns="http://www.w3.org/2000/svg">
<rect width="436" height="327" fill="black"/>
<rect width="436" height="327" fill="url(#paint0_radial_1009_6032)"/>
<rect width="436" height="327" fill="url(#paint1_linear_1009_6032)"/>
<mask id="mask0_1009_6032" style="mask-type:alpha" maskUnits="userSpaceOnUse" x="0" y="0" width="436" height="327">
<rect width="436" height="327" fill="black"/>
</mask>
<g mask="url(#mask0_1009_6032)">
<circle cx="218" cy="164" r="74.5" stroke="white" stroke-opacity="0.12"/>
<circle cx="218" cy="164" r="104.5" stroke="white" stroke-opacity="0.08"/>
<circle cx="218" cy="164" r="134.5" stroke="white" stroke-opacity="0.04"/>
<circle cx="218" cy="164" r="164.5" stroke="white" stroke-opacity="0.04"/>
<g filter="url(#filter0_d_1009_6032)">
<circle cx="218" cy="164" r="55" fill="url(#paint2_linear_1009_6032)"/>
</g>
<circle cx="151" cy="83" r="3" fill="#D4CAFB"/>
<circle cx="283" cy="83" r="3" fill="#D4CAFB"/>
<circle cx="323" cy="163" r="3" fill="#D4CAFB"/>
<circle cx="113" cy="163" r="3" fill="#D4CAFB"/>
<circle cx="151" cy="243" r="3" fill="#D4CAFB"/>
<circle cx="286" cy="243" r="3" fill="#D4CAFB"/>
<g filter="url(#filter1_d_1009_6032)">
<path d="M233.801 150.001C232.693 149.998 231.627 150.418 230.829 151.172C230.442 151.538 230.134 151.978 229.923 152.463C229.712 152.949 229.602 153.471 229.6 153.999V173.996C229.6 175.059 230.043 176.076 230.829 176.824C231.626 177.578 232.692 177.999 233.8 177.997C234.908 178 235.974 177.58 236.772 176.826C237.159 176.459 237.467 176.02 237.678 175.534C237.889 175.049 237.998 174.527 238 173.999V153.998C237.999 153.47 237.89 152.948 237.679 152.462C237.468 151.976 237.16 151.537 236.772 151.171C235.974 150.417 234.908 149.997 233.8 150L233.801 150.001ZM219.406 154.001C218.9 152.815 218.042 151.804 216.944 151.1C215.828 150.384 214.525 150.002 213.191 150.001C211.858 150 210.554 150.38 209.438 151.094C208.335 151.798 207.475 152.811 206.966 154L198.172 174.72C198.023 175.083 197.97 175.476 198.016 175.864C198.063 176.253 198.208 176.624 198.438 176.943C198.666 177.265 198.976 177.528 199.336 177.71C199.698 177.895 200.098 177.99 200.507 177.993H214.317C214.724 177.988 215.124 177.889 215.484 177.704C215.841 177.522 216.148 177.258 216.378 176.935C216.603 176.615 216.745 176.246 216.79 175.86C216.834 175.474 216.781 175.083 216.634 174.722L215.258 171.481C215.066 171.042 214.746 170.667 214.337 170.406C213.923 170.14 213.439 169.997 212.944 169.995C212.537 169.99 212.137 169.891 211.777 169.706C211.42 169.524 211.113 169.26 210.883 168.937C210.658 168.617 210.516 168.248 210.471 167.862C210.427 167.476 210.48 167.085 210.627 166.724C210.835 166.234 211.19 165.817 211.643 165.527C212.103 165.231 212.642 165.074 213.192 165.074C213.742 165.074 214.28 165.231 214.741 165.527C215.198 165.817 215.552 166.234 215.757 166.722L219.912 176.513C220.1 176.956 220.42 177.332 220.829 177.594C221.244 177.86 221.73 178.001 222.227 178H225.898C226.306 177.998 226.707 177.901 227.069 177.718C227.427 177.535 227.735 177.271 227.966 176.947C228.194 176.627 228.336 176.257 228.382 175.869C228.427 175.482 228.374 175.089 228.226 174.727L219.406 154.004V154.002V154.001Z" fill="white"/>
</g>
</g>
<defs>
<filter id="filter0_d_1009_6032" x="139" y="93" width="158" height="158" filterUnits="userSpaceOnUse" color-interpolation-filters="sRGB">
<feFlood flood-opacity="0" result="BackgroundImageFix"/>
<feColorMatrix in="SourceAlpha" type="matrix" values="0 0 0 0 0 0 0 0 0 0 0 0 0 0 0 0 0 0 127 0" result="hardAlpha"/>
<feOffset dy="8"/>
<feGaussianBlur stdDeviation="12"/>
<feComposite in2="hardAlpha" operator="out"/>
<feColorMatrix type="matrix" values="0 0 0 0 0.309804 0 0 0 0 0.101961 0 0 0 0 0.839216 0 0 0 0.4 0"/>
<feBlend mode="normal" in2="BackgroundImageFix" result="effect1_dropShadow_1009_6032"/>
<feBlend mode="normal" in="SourceGraphic" in2="effect1_dropShadow_1009_6032" result="shape"/>
</filter>
<filter id="filter1_d_1009_6032" x="186" y="146" width="64" height="52" filterUnits="userSpaceOnUse" color-interpolation-filters="sRGB">
<feFlood flood-opacity="0" result="BackgroundImageFix"/>
<feColorMatrix in="SourceAlpha" type="matrix" values="0 0 0 0 0 0 0 0 0 0 0 0 0 0 0 0 0 0 127 0" result="hardAlpha"/>
<feOffset dy="8"/>
<feGaussianBlur stdDeviation="6"/>
<feComposite in2="hardAlpha" operator="out"/>
<feColorMatrix type="matrix" values="0 0 0 0 0 0 0 0 0 0 0 0 0 0 0 0 0 0 0.3 0"/>
<feBlend mode="normal" in2="BackgroundImageFix" result="effect1_dropShadow_1009_6032"/>
<feBlend mode="normal" in="SourceGraphic" in2="effect1_dropShadow_1009_6032" result="shape"/>
</filter>
<radialGradient id="paint0_radial_1009_6032" cx="0" cy="0" r="1" gradientUnits="userSpaceOnUse" gradientTransform="translate(218 163.5) rotate(90) scale(163.5 218)">
<stop stop-color="#0F0912" stop-opacity="0.15"/>
<stop offset="1" stop-color="#0C0912"/>
</radialGradient>
<linearGradient id="paint1_linear_1009_6032" x1="218" y1="0" x2="218" y2="327" gradientUnits="userSpaceOnUse">
<stop stop-color="#4F1AD6" stop-opacity="0.15"/>
<stop offset="1" stop-opacity="0.5"/>
</linearGradient>
<linearGradient id="paint2_linear_1009_6032" x1="218" y1="109" x2="218" y2="219" gradientUnits="userSpaceOnUse">
<stop stop-color="#A19DF7"/>
<stop offset="1" stop-color="#423EA7"/>
</linearGradient>
</defs>
</svg>
