<svg width="436" height="327" viewBox="0 0 436 327" fill="none" xmlns="http://www.w3.org/2000/svg">
<rect width="436" height="327" fill="black"/>
<rect width="436" height="327" fill="url(#paint0_radial_1009_5413)"/>
<rect width="436" height="327" fill="url(#paint1_linear_1009_5413)"/>
<mask id="mask0_1009_5413" style="mask-type:alpha" maskUnits="userSpaceOnUse" x="0" y="0" width="436" height="327">
<rect width="436" height="327" fill="black"/>
</mask>
<g mask="url(#mask0_1009_5413)">
<circle cx="218" cy="164" r="74.5" stroke="white" stroke-opacity="0.12"/>
<circle cx="218" cy="164" r="104.5" stroke="white" stroke-opacity="0.08"/>
<circle cx="218" cy="164" r="134.5" stroke="white" stroke-opacity="0.04"/>
<circle cx="218" cy="164" r="164.5" stroke="white" stroke-opacity="0.04"/>
<g filter="url(#filter0_d_1009_5413)">
<circle cx="218" cy="164" r="55" fill="url(#paint2_linear_1009_5413)"/>
</g>
<circle cx="151" cy="83" r="3" fill="#D4CAFB"/>
<circle cx="283" cy="83" r="3" fill="#D4CAFB"/>
<circle cx="323" cy="163" r="3" fill="#D4CAFB"/>
<circle cx="113" cy="163" r="3" fill="#D4CAFB"/>
<circle cx="151" cy="243" r="3" fill="#D4CAFB"/>
<circle cx="286" cy="243" r="3" fill="#D4CAFB"/>
<path d="M102 63.5H118C128.77 63.5 137.5 72.2304 137.5 83C137.5 93.7696 128.77 102.5 118 102.5H102C91.2304 102.5 82.5 93.7696 82.5 83C82.5 72.2304 91.2304 63.5 102 63.5Z" fill="url(#paint3_linear_1009_5413)" stroke="#20182F"/>
<path d="M99.024 84.712H104.96V88.648H99.024V84.712ZM103.856 87.624V85.752H100.128V87.624H103.856ZM103.552 81.592C104.864 82.52 105.968 83.432 106.864 84.344L106 85.192C105.216 84.296 104.144 83.336 102.768 82.328L103.552 81.592ZM102.096 75.768C102.288 76.216 102.48 76.696 102.656 77.24H109.088V78.36H105.632C105.344 79.08 105.024 79.72 104.704 80.296H108.256V88.936C108.256 89.992 107.776 90.52 106.848 90.52H105.216L104.928 89.464L106.48 89.512C106.928 89.512 107.152 89.224 107.152 88.68V81.32H96.816V90.488H95.712V80.296H99.088C98.848 79.608 98.56 78.968 98.24 78.36H94.912V77.24H101.424C101.232 76.776 101.04 76.36 100.832 75.976L102.096 75.768ZM100.288 80.296H103.456C103.792 79.656 104.096 79.016 104.368 78.36H99.52C99.792 78.936 100.048 79.592 100.288 80.296ZM100.336 81.608L101.152 82.328C100.24 83.432 99.104 84.392 97.76 85.208L97.024 84.248C98.336 83.512 99.44 82.632 100.336 81.608ZM113.584 76.6H122.4V81.832H113.584V76.6ZM121.248 80.744V77.688H114.736V80.744H121.248ZM117.088 83.416V90.36H115.968V89.544H112.592V90.36H111.456V83.416H117.088ZM112.592 88.456H115.968V84.52H112.592V88.456ZM124.528 83.416V90.36H123.376V89.544H119.872V90.36H118.736V83.416H124.528ZM119.872 88.456H123.376V84.52H119.872V88.456Z" fill="white" fill-opacity="0.5"/>
<path d="M64 143.5H80C90.7696 143.5 99.5 152.23 99.5 163C99.5 173.77 90.7696 182.5 80 182.5H64C53.2304 182.5 44.5 173.77 44.5 163C44.5 152.23 53.2304 143.5 64 143.5Z" fill="url(#paint4_linear_1009_5413)" stroke="#20182F"/>
<path d="M58.688 163.032C59.92 163.448 61.056 163.976 62.08 164.6L61.504 165.48C60.416 164.776 59.296 164.232 58.144 163.832L58.688 163.032ZM60.112 161.4C61.312 161.784 62.416 162.248 63.424 162.792L62.832 163.672C61.776 163.064 60.672 162.568 59.552 162.216L60.112 161.4ZM64.592 161.448H65.696V163.992C65.664 164.6 65.584 165.16 65.44 165.672H70.736V166.776H64.992C64.896 166.952 64.784 167.128 64.672 167.304C66.784 167.96 68.704 168.744 70.448 169.64L69.808 170.648C67.92 169.576 66 168.728 64.016 168.088C63.936 168.152 63.872 168.216 63.808 168.28C62.64 169.272 60.736 170.04 58.08 170.6L57.472 169.624C60.128 169.096 61.968 168.392 63.008 167.528C63.264 167.288 63.488 167.032 63.68 166.776H57.392V165.672H64.272C64.464 165.16 64.56 164.6 64.592 163.992V161.448ZM57.568 159.784H63.504V158.248H58.736V157.208H63.504V155.944H64.624V157.208H69.296V158.248H64.624V159.784H70.272V160.488C70.016 161.592 69.664 162.664 69.248 163.72L68.16 163.416C68.544 162.648 68.848 161.784 69.104 160.824H57.568V159.784ZM84.336 161.496V157.128H85.488V162.616H80.592V168.488H85.104V164.12H86.272V170.488H85.104V169.592H73.728V164.12H74.896V168.488H79.408V162.616H74.512V157.128H75.664V161.496H79.408V155.912H80.592V161.496H84.336Z" fill="white" fill-opacity="0.5"/>
<path d="M316 63.5H332C342.77 63.5 351.5 72.2304 351.5 83C351.5 93.7696 342.77 102.5 332 102.5H316C305.23 102.5 296.5 93.7696 296.5 83C296.5 72.2304 305.23 63.5 316 63.5Z" fill="url(#paint5_linear_1009_5413)" stroke="#20182F"/>
<path d="M311.584 76.6H320.4V81.832H311.584V76.6ZM319.248 80.744V77.688H312.736V80.744H319.248ZM315.088 83.416V90.36H313.968V89.544H310.592V90.36H309.456V83.416H315.088ZM310.592 88.456H313.968V84.52H310.592V88.456ZM322.528 83.416V90.36H321.376V89.544H317.872V90.36H316.736V83.416H322.528ZM317.872 88.456H321.376V84.52H317.872V88.456ZM328.48 76.104H329.584V80.376H330.48V81.448H326.784V82.248C326.784 82.776 326.768 83.272 326.752 83.752H329.76V90.376H328.64V84.824H326.704C326.512 87.4 326.064 89.368 325.344 90.728L324.496 89.992C325.264 88.392 325.664 85.8 325.68 82.248V76.424H326.784V80.376H328.48V76.104ZM331.232 77.352H333.712C333.936 76.84 334.112 76.328 334.224 75.8L335.376 75.944C335.248 76.44 335.088 76.904 334.88 77.352H338.464V84.12H334.768L334.576 84.504C334.096 85.32 333.328 85.96 332.272 86.424H335.392V84.76H336.512V86.424H339.28V87.528H336.512V90.552H335.392V87.528H330.496V86.424H332.08L331.616 85.688C332.528 85.272 333.184 84.76 333.6 84.12H331.232V77.352ZM337.408 83.112V81.208H335.36C335.328 81.912 335.232 82.552 335.104 83.112H337.408ZM334.032 83.112C334.192 82.536 334.288 81.912 334.32 81.208H332.272V83.112H334.032ZM332.272 80.232H334.336V78.376H332.272V80.232ZM335.376 78.376V80.232H337.408V78.376H335.376Z" fill="white" fill-opacity="0.5"/>
<path d="M356 143.5H372C382.77 143.5 391.5 152.23 391.5 163C391.5 173.77 382.77 182.5 372 182.5H356C345.23 182.5 336.5 173.77 336.5 163C336.5 152.23 345.23 143.5 356 143.5Z" fill="url(#paint6_linear_1009_5413)" stroke="#20182F"/>
<path d="M349.488 156.648H357.008V157.672H355.392V160.072H357.36V161.128H355.392V164.648H354.272V161.128H352.176C352 162.776 351.392 164.008 350.336 164.84L349.472 164.088C350.368 163.416 350.896 162.44 351.056 161.128H349.072V160.072H351.12V157.672H349.488V156.648ZM352.224 157.672V160.072H354.272V157.672H352.224ZM358.304 157.016H359.408V162.52H358.304V157.016ZM349.872 166.216H355.488V164.824H356.64V166.216H362.144V167.272H356.64V169.144H363.024V170.2H348.976V169.144H355.488V167.272H349.872V166.216ZM361.024 164.792H358.88L358.64 163.704C359.344 163.752 360 163.784 360.64 163.784C361.008 163.784 361.2 163.528 361.2 163.048V156.136H362.304V163.32C362.304 164.296 361.872 164.792 361.024 164.792ZM367.312 156.504H376.688V160.824H367.312V156.504ZM375.504 159.784V157.544H368.496V159.784H375.504ZM368.464 163.304H364.8V162.2H379.184V163.304H369.632L369.088 165.176H376.912C376.816 167.736 376.56 169.272 376.176 169.768C375.792 170.248 375.056 170.488 373.968 170.488C373.168 170.488 372.464 170.456 371.84 170.392L371.456 169.336C372.304 169.4 373.056 169.432 373.712 169.432C374.576 169.432 375.104 169.256 375.312 168.904C375.504 168.552 375.648 167.656 375.744 166.216H367.712L368.464 163.304Z" fill="white" fill-opacity="0.5"/>
<path d="M319 223.5H335C345.77 223.5 354.5 232.23 354.5 243C354.5 253.77 345.77 262.5 335 262.5H319C308.23 262.5 299.5 253.77 299.5 243C299.5 232.23 308.23 223.5 319 223.5Z" fill="url(#paint7_linear_1009_5413)" stroke="#20182F"/>
<path d="M325.656 241.368V250.568H324.536V249.896H318.792V250.568H317.672V241.368H325.656ZM318.792 248.824H321.144V246.184H318.792V248.824ZM322.2 248.824H324.536V246.184H322.2V248.824ZM318.792 245.144H321.144V242.44H318.792V245.144ZM322.2 242.44V245.144H324.536V242.44H322.2ZM313.656 250.392H312.184L311.944 249.288C312.392 249.336 312.84 249.368 313.256 249.368C313.656 249.368 313.864 249.144 313.864 248.728V244.792C313.192 245.048 312.504 245.288 311.832 245.512L311.544 244.36C312.328 244.152 313.096 243.912 313.864 243.624V239.96H311.848V238.84H313.864V235.912H315.016V238.84H316.568V239.96H315.016V243.16C315.624 242.888 316.216 242.584 316.792 242.264V243.416C316.2 243.736 315.608 244.024 315.016 244.296V249.016C315.016 249.928 314.552 250.392 313.656 250.392ZM319.16 235.96H320.248V237.784H323.032V235.96H324.12V237.784H326.232V238.856H324.12V240.648H323.032V238.856H320.248V240.632H319.16V238.856H317.048V237.784H319.16V235.96ZM338.696 241.016C340.184 243 341.32 244.712 342.104 246.184L341.16 246.856C340.344 245.256 339.24 243.496 337.848 241.56L338.696 241.016ZM328.952 236.184C330.04 237.016 330.968 237.832 331.72 238.664L330.904 239.48C330.232 238.696 329.32 237.848 328.152 236.936L328.952 236.184ZM338.376 250.312C337.512 250.312 336.568 250.296 335.56 250.28C334.536 250.264 333.704 250.168 333.064 249.992C332.424 249.8 331.864 249.4 331.384 248.824C331.16 248.552 330.952 248.424 330.76 248.424C330.376 248.424 329.752 249.16 328.872 250.632L328.008 249.848C328.856 248.504 329.608 247.688 330.264 247.4V242.536H327.976V241.48H331.336V247.464C331.464 247.56 331.592 247.688 331.72 247.832C332.104 248.296 332.504 248.632 332.952 248.84C333.448 249.064 334.168 249.192 335.096 249.224C335.928 249.24 336.968 249.256 338.216 249.256C338.952 249.256 339.72 249.24 340.504 249.224C341.272 249.208 341.864 249.192 342.28 249.16L342.008 250.312H338.376ZM335.88 240.04H332.264V238.968H336.584V236.024H337.704V238.968H342.008V240.04H337.704V248.456H336.584V240.936C335.56 243.32 334.312 245.32 332.808 246.952L332.04 246.056C333.592 244.488 334.872 242.488 335.88 240.04ZM339.96 235.944C340.472 236.632 340.92 237.368 341.304 238.152L340.392 238.568C339.976 237.688 339.512 236.92 339.016 236.248L339.96 235.944Z" fill="white" fill-opacity="0.5"/>
<path d="M102 223.5H118C128.77 223.5 137.5 232.23 137.5 243C137.5 253.77 128.77 262.5 118 262.5H102C91.2304 262.5 82.5 253.77 82.5 243C82.5 232.23 91.2304 223.5 102 223.5Z" fill="url(#paint8_linear_1009_5413)" stroke="#20182F"/>
<path d="M98.16 235.848L99.248 236.36C98.832 237.64 98.304 238.856 97.664 239.992V250.632H96.512V241.768C96.016 242.44 95.472 243.096 94.88 243.736L94.512 242.52C96.176 240.584 97.392 238.36 98.16 235.848ZM99.184 239.112H103.552V235.944H104.736V239.112H109.296V240.216H104.736V243.56H108.256V250.584H107.12V249.88H101.28V250.584H100.128V243.56H103.552V240.216H99.184V239.112ZM101.28 248.776H107.12V244.664H101.28V248.776ZM112.672 241.48C112.16 242.232 111.584 242.952 110.976 243.624L110.592 242.408C112.16 240.52 113.312 238.36 114.016 235.928L115.104 236.424C114.768 237.496 114.352 238.52 113.856 239.496V250.552H112.672V241.48ZM121.328 241.528H122.448V250.456H121.328V241.528ZM117.216 241.576H118.32V243.992C118.288 247.016 117.504 249.224 115.968 250.632L115.104 249.88C116.48 248.664 117.184 246.696 117.216 243.992V241.576ZM119.248 236.008H120.288C121.28 238.152 123.008 240.024 125.44 241.64L124.784 242.616C122.544 241.128 120.864 239.288 119.76 237.112C118.48 239.56 116.88 241.448 114.944 242.792L114.304 241.816C116.448 240.328 118.096 238.392 119.248 236.008Z" fill="white" fill-opacity="0.5"/>
<g filter="url(#filter1_d_1009_5413)">
<path d="M233.801 150.001C232.693 149.998 231.627 150.418 230.829 151.172C230.442 151.538 230.134 151.978 229.923 152.463C229.712 152.949 229.602 153.471 229.6 153.999V173.996C229.6 175.059 230.043 176.076 230.829 176.824C231.626 177.578 232.692 177.999 233.8 177.997C234.908 178 235.974 177.58 236.772 176.826C237.159 176.459 237.467 176.02 237.678 175.534C237.889 175.049 237.998 174.527 238 173.999V153.998C237.999 153.47 237.89 152.948 237.679 152.462C237.468 151.976 237.16 151.537 236.772 151.171C235.974 150.417 234.908 149.997 233.8 150L233.801 150.001ZM219.406 154.001C218.9 152.815 218.042 151.804 216.944 151.1C215.828 150.384 214.525 150.002 213.191 150.001C211.858 150 210.554 150.38 209.438 151.094C208.335 151.798 207.475 152.811 206.966 154L198.172 174.72C198.023 175.083 197.97 175.476 198.016 175.864C198.063 176.253 198.208 176.624 198.438 176.943C198.666 177.265 198.976 177.528 199.336 177.71C199.698 177.895 200.098 177.99 200.507 177.993H214.317C214.724 177.988 215.124 177.889 215.484 177.704C215.841 177.522 216.148 177.258 216.378 176.935C216.603 176.615 216.745 176.246 216.79 175.86C216.834 175.474 216.781 175.083 216.634 174.722L215.258 171.481C215.066 171.042 214.746 170.667 214.337 170.406C213.923 170.14 213.439 169.997 212.944 169.995C212.537 169.99 212.137 169.891 211.777 169.706C211.42 169.524 211.113 169.26 210.883 168.937C210.658 168.617 210.516 168.248 210.471 167.862C210.427 167.476 210.48 167.085 210.627 166.724C210.835 166.234 211.19 165.817 211.643 165.527C212.103 165.231 212.642 165.074 213.192 165.074C213.742 165.074 214.28 165.231 214.741 165.527C215.198 165.817 215.552 166.234 215.757 166.722L219.912 176.513C220.1 176.956 220.42 177.332 220.829 177.594C221.244 177.86 221.73 178.001 222.227 178H225.898C226.306 177.998 226.707 177.901 227.069 177.718C227.427 177.535 227.735 177.271 227.966 176.947C228.194 176.627 228.336 176.257 228.382 175.869C228.427 175.482 228.374 175.089 228.226 174.727L219.406 154.004V154.002V154.001Z" fill="white"/>
</g>
</g>
<defs>
<filter id="filter0_d_1009_5413" x="139" y="93" width="158" height="158" filterUnits="userSpaceOnUse" color-interpolation-filters="sRGB">
<feFlood flood-opacity="0" result="BackgroundImageFix"/>
<feColorMatrix in="SourceAlpha" type="matrix" values="0 0 0 0 0 0 0 0 0 0 0 0 0 0 0 0 0 0 127 0" result="hardAlpha"/>
<feOffset dy="8"/>
<feGaussianBlur stdDeviation="12"/>
<feComposite in2="hardAlpha" operator="out"/>
<feColorMatrix type="matrix" values="0 0 0 0 0.309804 0 0 0 0 0.101961 0 0 0 0 0.839216 0 0 0 0.4 0"/>
<feBlend mode="normal" in2="BackgroundImageFix" result="effect1_dropShadow_1009_5413"/>
<feBlend mode="normal" in="SourceGraphic" in2="effect1_dropShadow_1009_5413" result="shape"/>
</filter>
<filter id="filter1_d_1009_5413" x="186" y="146" width="64" height="52" filterUnits="userSpaceOnUse" color-interpolation-filters="sRGB">
<feFlood flood-opacity="0" result="BackgroundImageFix"/>
<feColorMatrix in="SourceAlpha" type="matrix" values="0 0 0 0 0 0 0 0 0 0 0 0 0 0 0 0 0 0 127 0" result="hardAlpha"/>
<feOffset dy="8"/>
<feGaussianBlur stdDeviation="6"/>
<feComposite in2="hardAlpha" operator="out"/>
<feColorMatrix type="matrix" values="0 0 0 0 0 0 0 0 0 0 0 0 0 0 0 0 0 0 0.3 0"/>
<feBlend mode="normal" in2="BackgroundImageFix" result="effect1_dropShadow_1009_5413"/>
<feBlend mode="normal" in="SourceGraphic" in2="effect1_dropShadow_1009_5413" result="shape"/>
</filter>
<radialGradient id="paint0_radial_1009_5413" cx="0" cy="0" r="1" gradientUnits="userSpaceOnUse" gradientTransform="translate(218 163.5) rotate(90) scale(163.5 218)">
<stop stop-color="#0F0912" stop-opacity="0.15"/>
<stop offset="1" stop-color="#0C0912"/>
</radialGradient>
<linearGradient id="paint1_linear_1009_5413" x1="218" y1="0" x2="218" y2="327" gradientUnits="userSpaceOnUse">
<stop stop-color="#4F1AD6" stop-opacity="0.15"/>
<stop offset="1" stop-opacity="0.5"/>
</linearGradient>
<linearGradient id="paint2_linear_1009_5413" x1="218" y1="109" x2="218" y2="219" gradientUnits="userSpaceOnUse">
<stop stop-color="#A19DF7"/>
<stop offset="1" stop-color="#423EA7"/>
</linearGradient>
<linearGradient id="paint3_linear_1009_5413" x1="110" y1="63" x2="110" y2="103" gradientUnits="userSpaceOnUse">
<stop stop-color="#1F1339"/>
<stop offset="1" stop-color="#130C1A"/>
</linearGradient>
<linearGradient id="paint4_linear_1009_5413" x1="72" y1="143" x2="72" y2="183" gradientUnits="userSpaceOnUse">
<stop stop-color="#1F1339"/>
<stop offset="1" stop-color="#130C1A"/>
</linearGradient>
<linearGradient id="paint5_linear_1009_5413" x1="324" y1="63" x2="324" y2="103" gradientUnits="userSpaceOnUse">
<stop stop-color="#1F1339"/>
<stop offset="1" stop-color="#130C1A"/>
</linearGradient>
<linearGradient id="paint6_linear_1009_5413" x1="364" y1="143" x2="364" y2="183" gradientUnits="userSpaceOnUse">
<stop stop-color="#1F1339"/>
<stop offset="1" stop-color="#130C1A"/>
</linearGradient>
<linearGradient id="paint7_linear_1009_5413" x1="327" y1="223" x2="327" y2="263" gradientUnits="userSpaceOnUse">
<stop stop-color="#1F1339"/>
<stop offset="1" stop-color="#130C1A"/>
</linearGradient>
<linearGradient id="paint8_linear_1009_5413" x1="110" y1="223" x2="110" y2="263" gradientUnits="userSpaceOnUse">
<stop stop-color="#1F1339"/>
<stop offset="1" stop-color="#130C1A"/>
</linearGradient>
</defs>
</svg>
